<svg width="20" height="20" viewBox="0 0 20 20" fill="none" xmlns="http://www.w3.org/2000/svg">
<path fill-rule="evenodd" clip-rule="evenodd" d="M19.4291 13.1604C19.7597 12.167 19.9387 11.1044 19.9387 10C19.9387 4.47715 15.4616 0 9.93875 0C4.79215 0 0.553619 3.88791 0 8.8869C0.478746 7.44214 1.84854 6.39993 3.56097 6.39993C5.70061 6.39993 7.28554 8.00708 7.28554 10.0135V10.0335C7.28554 12.0399 5.6808 13.667 3.54116 13.667C1.85052 13.667 0.506214 12.6636 0.0164529 11.2527C0.632776 16.1843 4.84016 20 9.93875 20C12.0604 20 14.0277 19.3393 15.6462 18.2124L17.3058 18.6571C17.6032 18.7368 17.8754 18.4646 17.7957 18.1672L17.3934 16.6656C18.157 15.8122 18.7763 14.8268 19.2127 13.7478H17.3656C17.1557 13.7478 17.0192 13.6604 16.9563 13.4854L16.7043 12.7926H14.4475L14.1956 13.4854C14.1326 13.6604 13.9961 13.7478 13.7862 13.7478H11.8443C11.7813 13.7478 11.7253 13.7269 11.6763 13.6849C11.6343 13.6359 11.6133 13.5904 11.6133 13.5484C11.6133 13.4994 11.6168 13.4644 11.6238 13.4434L13.9646 6.7464C14.0276 6.51547 14.1851 6.4 14.437 6.4H16.7148C16.9668 6.4 17.1242 6.51547 17.1872 6.7464L19.4291 13.1604ZM2.07348 10.0334C2.07348 10.8736 2.67933 11.6056 3.55908 11.6056C4.44711 11.6056 5.03638 10.8902 5.03638 10.05V10.0334C5.03638 9.19323 4.43052 8.46119 3.54248 8.46119C2.66274 8.46119 2.07348 9.17659 2.07348 10.0168V10.0334ZM8.77921 13.6639C8.8352 13.7199 8.90168 13.7478 8.97866 13.7478H11.0361C11.113 13.7478 11.1795 13.7199 11.2355 13.6639C11.2915 13.6079 11.3195 13.5414 11.3195 13.4644V11.3965L13.6813 6.72541C13.6953 6.69742 13.7023 6.65893 13.7023 6.60994C13.7023 6.56096 13.6778 6.51547 13.6288 6.47348C13.5868 6.4245 13.5343 6.4 13.4713 6.4H11.4979C11.288 6.4 11.141 6.48748 11.057 6.66243L10.0074 8.77231L8.95766 6.66243C8.87369 6.48748 8.72673 6.4 8.51679 6.4H6.54337C6.48039 6.4 6.42441 6.4245 6.37542 6.47348C6.33343 6.51547 6.31244 6.56096 6.31244 6.60994C6.31244 6.65893 6.31944 6.69742 6.33343 6.72541L8.69524 11.3965V13.4644C8.69524 13.5414 8.72323 13.6079 8.77921 13.6639ZM16.169 10.7457H14.9828L15.5707 8.7933L16.169 10.7457Z" fill="#E35901"/>
</svg>
